<svg xmlns="http://www.w3.org/2000/svg" viewBox="0 0 295.47 256.8"><defs><style>.cls-1,.cls-3{fill:#6667a8;}.cls-1{opacity:0.5;}.cls-2{fill:none;stroke:#000;stroke-miterlimit:10;}.cls-4{fill:#fff;}</style></defs><g id="Layer_2" data-name="Layer 2"><g id="Layer_1-2" data-name="Layer 1"><path class="cls-1" d="M97.5,48.29H264.78A30.68,30.68,0,0,1,295.47,79V183.56a30.68,30.68,0,0,1-27.58,30.53V256.8l-54.81-42.55H97.5a30.69,30.69,0,0,1-30.69-30.69V79A30.68,30.68,0,0,1,97.5,48.29Z"/><path class="cls-2" d="M83.83,38.66H251.12a30.69,30.69,0,0,1,30.69,30.69V173.94a30.7,30.7,0,0,1-27.58,30.53v42.71l-54.82-42.55H83.83a30.68,30.68,0,0,1-30.68-30.69V69.35A30.68,30.68,0,0,1,83.83,38.66Z"/><path class="cls-3" d="M205.38,12.92H38.09A30.69,30.69,0,0,0,7.4,43.61V148.2A30.69,30.69,0,0,0,35,178.73v42.71l54.81-42.55H205.38a30.69,30.69,0,0,0,30.68-30.69V43.61A30.69,30.69,0,0,0,205.38,12.92Z"/><path class="cls-2" d="M198.47.5H31.19A30.69,30.69,0,0,0,.5,31.19V135.78a30.69,30.69,0,0,0,27.58,30.53V209l54.81-42.55H198.47a30.69,30.69,0,0,0,30.69-30.68V31.19A30.69,30.69,0,0,0,198.47.5Z"/><circle class="cls-4" cx="72.43" cy="85.87" r="12.74"/><circle class="cls-4" cx="163.8" cy="85.87" r="12.74"/><circle class="cls-4" cx="118.12" cy="85.87" r="12.74"/><circle class="cls-2" cx="66.81" cy="83.35" r="12.74"/><circle class="cls-2" cx="158.18" cy="83.35" r="12.74"/><circle class="cls-2" cx="112.49" cy="83.35" r="12.74"/></g></g></svg>