<svg xmlns="http://www.w3.org/2000/svg" viewBox="0 0 59.23 68.43"><defs><style>.cls-1{fill-rule:evenodd;}</style></defs><g id="Layer_2" data-name="Layer 2"><g id="Layer_1-2" data-name="Layer 1"><rect x="0.01" y="66.99" width="59.22" height="1.12"/><path class="cls-1" d="M29.25,35.36c-.64-1.12-2.07-2.27-1.1-7C25.4,21.42,27,21,31.35,24.7A7,7,0,0,1,35.09,24a6.91,6.91,0,0,1,3.74.71c4.33-3.71,6-3.28,3.2,3.65.93,4.46-.24,5.75-1,6.81-1.62,2.37,1.08,7.8.81,11.37-.42,5.67-5.47,10-1.24,17,1,1.68,1.54,1,2.32,1.73s1.07,2.93.31,3a36.21,36.21,0,0,1-5.11,0c-1.45-.11-1.1-1.56-1.34-2.52a11.49,11.49,0,0,0-.61-1.45c-.37-.79-.8-.84-1-1.38s0-1-.06-1.59A20.33,20.33,0,0,0,34.52,59c-.53-2-2.71,3.92-1.56,5.35,1,1.25,2.43.52,3,1.55a2.39,2.39,0,0,1,.13,1.8c-.17.44-1.09.64-3.71.6L11.16,67.9C-.5,67.69-.25,58.57,5,54.55c1.39-1,2.2.6,1.35,1.4-6.13,5.33-.77,11,5,9.41-2-12.21,5.41-9.81,13.42-23.7,1.33-2.3,6.25-3.21,4.48-6.3"/><path d="M49.38,15.32l-.11.12a2.92,2.92,0,0,0,.28.21c-.07-.11-.11-.22-.17-.33m-2.19-2.61a4.08,4.08,0,0,1-.25-.33l-.16-.06Zm.79.69a1,1,0,0,0-.33-.26l.07.06Zm.69,1,.57.49c-.11-.14-.67-.83-1.11-1.3l-.39-.28C48.07,13.63,48.38,14,48.67,14.37Zm-.9,2.83-.39-.42.16.4a1.8,1.8,0,0,1-.23-.46L47,16.45l.41.57a21.84,21.84,0,0,0-2-1.72l-.57-.41s.67.43.52.21a4.35,4.35,0,0,0-.65-.57l-.21-.12h0L44,14.15c.22.2.44.41.65.63a20.58,20.58,0,0,0-3.59-2,23.26,23.26,0,0,1,2.66,1c.41.14,0-.1-.31-.32a19.52,19.52,0,0,0-1.78-.87,20.88,20.88,0,0,0-3.3-.8,21,21,0,0,1,2.46.85,23.51,23.51,0,0,0-2.61-.61c-.25-.05-.5-.08-.75-.12a.91.91,0,0,1-.23,0l-.22,0h.14a20.31,20.31,0,0,0-2.05-.32,21.17,21.17,0,0,0-4.95.62c-.44.11-.87.24-1.31.38a16.15,16.15,0,0,0-1.7.57h.17a13.2,13.2,0,0,0-1.32.62h-.15c-.4.21-.79.43-1.18.66s-1,.49-1.44.76v.11l-.22.06-.17.06a20.14,20.14,0,0,0-5.07,5.1A19.79,19.79,0,0,0,14.4,34.6a20.38,20.38,0,0,0,2.37,7.11,21.83,21.83,0,0,0,3.9,5.07,11.5,11.5,0,0,1-1-.93c-.22-.23-.73-.67-.73-.67a20,20,0,0,1-1.55-1.77l-.51-.85q-.21-.33-.39-.66a19.3,19.3,0,0,1-1.64-3.79c-.19-.61-.64-1.9-.64-1.9,0-.19-.07-.37-.1-.55s-.09-.44-.14-.66c0,.4,0,.79,0,1.19-.07-.5-.11-1-.14-1.5a3.32,3.32,0,0,1,0-.46,7.47,7.47,0,0,1-.11-2.43,6.07,6.07,0,0,1-.14-.67,7.69,7.69,0,0,1,0-1,5.53,5.53,0,0,0,.09-.77c0-.22-.07-.43-.1-.65a6.61,6.61,0,0,1,.18-.93c0-.14.12-.57.09-.15a5,5,0,0,0,.36-.62v0s.05-.16.06-.19a1.75,1.75,0,0,0,.1-.3l0,0,.07-.16c1-2.67,1-3.46,2.69-6.25a20.69,20.69,0,0,1,2.53-3.23c-.5.29-1,.58-1.47.91L18,18l0,.06c-.25.36-.53.72-.79,1.08l-.52.59c-.21.25-.42.5-.62.76l.45-.75a.3.3,0,0,0,.08-.08c.92-.84.71-.69,0-.07l.4-.54-.27.26a3.67,3.67,0,0,1-.23.29l-.57.79a1.46,1.46,0,0,1-.22.33l0,0-.22.37-.06,0a20,20,0,0,0-1.6,3.08c-.06.25-.16.76-.16.76s-.1,1.07-.14,1.21-.09.43-.14.64a25.89,25.89,0,0,0-.39,3.6c-.05.56-.07,1.13-.13,1.69a1.28,1.28,0,0,0,0,.19l0-.09a21.47,21.47,0,0,0-.17,2.66q0,.47,0,.93a20.57,20.57,0,0,0,2.71,6.73c2,2.86,1.23,2.49,5.37,5.76a20.87,20.87,0,0,0,4.67,2.41l.61,0a23.48,23.48,0,0,1-4.67-3.24,6.11,6.11,0,0,0,1.14.58c1.4.68,2.51,1.33,4,1.92l.47.3a9.91,9.91,0,0,0,1.19.31h0L30,51l-.92,0a22.27,22.27,0,0,0,5.35.42.93.93,0,0,0,.36.14L36,51.35a2.21,2.21,0,0,0,.34-.06l1-.24c.52-.12,1-.26,1.54-.43A5,5,0,0,0,40,50.28c.31-.15.61-.32.9-.49l-.11,0c.21-.11.35-.17.56-.26L42.61,49c.28-.13.49-.29.75-.44h0c.61-.33.36-.23.87-.32l.49-.25a6.63,6.63,0,0,0,.72-.59.53.53,0,0,1,.12,0c.21-.18.41-.36.61-.56.4-.38.79-.76,1.18-1.16l0,0c-.13.17-.25.35-.39.52l.45-.47.1.09a20.91,20.91,0,0,1-2,1.82c-.2.33-.87.93-1,1.27l.32-.24.61-.49a19.21,19.21,0,0,0,2.19-2.32L46.1,47.72a9.88,9.88,0,0,0,1.15-1.09c2.86-3.1-1.07,1.15-1.72,1.73-.34.3-.68.56-1,.82a.22.22,0,0,0,.13.07h.12c.48-.39,1-.79,1.4-1.22h0L46.2,48l.09-.08s-.29,0-.23,0a1.53,1.53,0,0,1,.37-.29c.16-.09.12,0,.27-.14a2.16,2.16,0,0,1,.27-.25c.31-.33.62-.68.91-1l.25.21.45-.51-.35.23A39.43,39.43,0,0,0,51,42.68c-.07.25-1.37,2.23-1.37,2.25a3.69,3.69,0,0,1-.47.63,2,2,0,0,0-.42.44h0a2.1,2.1,0,0,1-.26.33l.06-.1c.13-.11.14-.13,0,0a1.93,1.93,0,0,1,.16-.21,5.12,5.12,0,0,0-.42.48l.06,0c.22-.25.43-.51.64-.76,0,0,.08-.1.07-.08s-.06.08,0,0c.22-.16.24-.18,0,0l-.1.17a3,3,0,0,0,.39-.49c.12-.17.21-.35.33-.51a.53.53,0,0,0,0,.12.08.08,0,0,1,0,0l0,0a.69.69,0,0,0,.05.13l-.05.08c-.39.47-.77.94-1.17,1.41h0c.79-.62.76-.59,0,0l0,.05c.17-.16.33-.32.48-.49.3-.39.58-.79.85-1.19a2.31,2.31,0,0,1,.21-.35s0,0,0,0c.4-.67.77-1.23,1.14-1.94a9.61,9.61,0,0,0,.52-1.18c-.17.37-.36.75-.57,1.16-.37.68-.76,1.33-1.2,2a.53.53,0,0,0-.28.07A20.6,20.6,0,0,0,51,42.72c.35-.64.65-1.24.91-1.85,0,.12,0,.24,0,.4s.62-1.68.61-1.61a12,12,0,0,1-1.23,3.2,21.68,21.68,0,0,1-2.68,4l.07.07A21.11,21.11,0,0,0,51.5,43,15.5,15.5,0,0,0,53,39.42a12.1,12.1,0,0,1-1.23,3.85,16.94,16.94,0,0,0,1.78-4.37,16.06,16.06,0,0,1-1.19,4.54A22.47,22.47,0,0,1,50.28,47l0,0-.22.27.2-.24s-.15.24-.12.24c-.34.4-.69.78-1,1.18h0c.23-.24.46-.49.68-.74h0a.73.73,0,0,0,.09-.09h0c.21-.24.42-.49.62-.74a8.47,8.47,0,0,1-.69.89,7.67,7.67,0,0,0-.65.72h0a0,0,0,0,1,0,0,.09.09,0,0,1,0,.05l-.23.75a1.19,1.19,0,0,1-.39.35l-.08,0a6.67,6.67,0,0,1-.68.62c-.21.18-.38.36-.59.53,0,0-.11.12-.17.12l-.35.26c.09,0,.08,0-.16.23s-.19.2-.48.24h0a.47.47,0,0,0,0,.52l-.42.06a5.4,5.4,0,0,0-.82.14c-.36.18-.71.36-1.07.52l-1,.49a22.53,22.53,0,0,1-2.38.86h-.14l-.49.22h0c.17,0,.42-.11.59-.16l2.38.13a12.52,12.52,0,0,1,1.65-.73,6.25,6.25,0,0,0,1.09-.41A23.77,23.77,0,0,1,41.18,55l.18,0a26.28,26.28,0,0,1-4.63,1.21,24.72,24.72,0,0,1-18.52-4.45,24.41,24.41,0,0,1-6.47-7A24,24,0,0,1,8.32,29.92a24.44,24.44,0,0,1,.53-4.26A24.25,24.25,0,0,1,29.3,6.88,23,23,0,0,1,43.07,9.24c-.93-.22-2-.69-2.82-.85l-.8-.06a1.06,1.06,0,0,1-.31-.05c-.3-.08-.55-.15-.86-.21S37.57,8,38.08,8a4.83,4.83,0,0,0-1.29-.41,3.63,3.63,0,0,0-.52,0,3.06,3.06,0,0,1-.66-.25,24.44,24.44,0,0,0-6.22.18,6.22,6.22,0,0,0-.65.13l.63-.21.51-.15-.52.07a17.7,17.7,0,0,0-1.92.41l-1.53.46c-.23,0-.47.07-.7.12a18.37,18.37,0,0,0-5,2.44l-.06,0c-.1.05-.76.63-.95.78s-1.17.8-1.17.8c-.52.41-1,.83-1.5,1.27-.32.27-.9.91-.9.9a25,25,0,0,0-1.88,2.24c-.15.17-.3.35-.44.53a3.46,3.46,0,0,0-.35.46c-.17.23-.33.47-.49.72.28-.4.56-.78.86-1.16A24.25,24.25,0,0,1,27,8.67a4.59,4.59,0,0,1,.95-.31c.53-.1,1-.19,1.57-.25A24.85,24.85,0,0,1,34.2,8c.41,0,1.22.14,1.22.14a26.25,26.25,0,0,1,2.8.42c.28,0,.55.1.82.16l.38.11c.63.18,1.24.37,1.85.59a9.29,9.29,0,0,0,1.25.55c.39.15.79.27,1.18.42a6.77,6.77,0,0,1,.84.44l.08-.18A18,18,0,0,1,46.46,12l.42.22c-.09-.29.61.09.68.11h0c.45.42.9.86,1.32,1.32,0,.07.23.42.4.78h0a2.87,2.87,0,0,1-.12-.28c0-.06.29.18.3.19s.23.27.34.41l-.07.07a19,19,0,0,1,1.45,1.39c.06.07-.55-.58-1.45-1.38l-.18.21-.26-.59,0,0c.11.25.22.49.27.62l-.17.2a18.51,18.51,0,0,1,3.17,3.62c.41.49.77,1,1.15,1.5-.21-.23-.5-.52-.67-.75l0,0c.07.1,1,1.32.3.54a5.27,5.27,0,0,1,.47,1c-.22-.33-.42-.75-.65-1.1a3.58,3.58,0,0,0-.34-.52q.51.78,1,1.59a1.84,1.84,0,0,0-.17-.22c-.33-.58-.69-1.14-1.07-1.69l-.12-.14a.19.19,0,0,0,0-.08Q52,18.49,51.58,18c-.27-.28-.5-.63-.78-.91l-.25-.24c.3.32.58.65.86,1a1.24,1.24,0,0,1,.18.22,20.74,20.74,0,0,1,1.82,2.62v0c.17.29.34.58.5.88-.19-.33-.41-.65-.61-1a5.42,5.42,0,0,0-.57-.87l-.17-.23a27.05,27.05,0,0,1,1,2.86,25.15,25.15,0,0,0-1.68-3.71l.06.05-.09-.12a.08.08,0,0,1,0,.05c-.27-.29-.55-.57-.84-.85a2.18,2.18,0,0,0-.22-.31v0a1.6,1.6,0,0,1-.31-.33l.1.09c.12.18.1.15,0,0a1.66,1.66,0,0,1,.2.22s.07,0,.07,0c-.28-.31-.57-.61-.87-.91,0,0,0,0,0,0,.09.16.17.33.25.5.27.24.51.49.77.73a1.23,1.23,0,0,1,.14.25L51,17.75c.12.29.1.25,0,0l-.15-.15a2.79,2.79,0,0,0,.41.53c.15.19.3.33.45.5H51.5l0,0a.08.08,0,0,0,0,0h-.18l-.06-.06a10.49,10.49,0,0,0-.76-1,4.32,4.32,0,0,0,.89,1.38q-.33-.4-.66-.78a1.34,1.34,0,0,0,.26.52,1.33,1.33,0,0,1-.14-.19c0,.06.09.14.12.19s0,0-.06,0,.26.89.24.9A6.19,6.19,0,0,1,52,20.85a2.92,2.92,0,0,0,.42.92,21.6,21.6,0,0,0-1.72-2.63L50,18.69a9.86,9.86,0,0,0-1-1.07c.46.73.39.64-.1-.1l-.5-.43c.3.33.59.68.87,1l.42.42c-.61-.31-.41-.19-.92-.74.22.16-.11-.12-.08-.1l0,.06c-.26-.28-.51-.53-.78-.78Z"/><path d="M53.36,52.67l-.14-.16.36-.27c-.08.14-.14.29-.22.43M50.52,56a4.63,4.63,0,0,0-.32.42L50,56.5C50.17,56.34,50.35,56.17,50.52,56Zm1-.88a1.27,1.27,0,0,1-.43.32l.09-.07Zm.9-1.24.73-.63c-.13.18-.86,1.06-1.42,1.66l-.51.36C51.66,54.82,52.06,54.36,52.44,53.88Zm-3.24-.94a3.18,3.18,0,0,0-.27.37,1,1,0,0,0-.19.07Zm.9-.77a1.42,1.42,0,0,1-.38.29l.08-.07Zm1.42-1.62h0l-.64.55c-.33.42-.68.82-1.05,1.21l.44-.31C50.76,51.48,51.38,50.71,51.52,50.55Zm0-37.41.22-.19.59.66-.45-.3c1.85,1.9,3,3.74,3.56,4.38-.1-.32-1.79-2.84-1.78-2.87A4.83,4.83,0,0,0,53,14a2.61,2.61,0,0,1-.54-.56h0a2,2,0,0,0-.34-.42.83.83,0,0,1,.08.12c.17.15.19.17,0,0l.21.27s-.29-.33-.53-.62l.07-.05c.28.31.56.64.83,1,0,0,.11.12.09.1s-.08-.11,0-.07c.28.21.31.23,0,0a2.39,2.39,0,0,0-.13-.21,3.28,3.28,0,0,1,.51.63c.16.21.27.44.42.65a1,1,0,0,1,.05-.16l0-.05,0,.05a1.15,1.15,0,0,1,.06-.17l-.06-.09c-.51-.61-1-1.21-1.52-1.81h0c1,.79,1,.75,0,0l.07-.06c.22.2.42.41.63.62.38.5.74,1,1.09,1.53a2.62,2.62,0,0,0,.28.44s0,0-.05,0c.51.86,1,1.57,1.47,2.48A11.94,11.94,0,0,1,56.4,19c-.21-.46-.45-1-.73-1.47A25.28,25.28,0,0,0,54.11,15a.65.65,0,0,1-.36-.1,26.72,26.72,0,0,1,1.76,2.71c.45.82.84,1.59,1.18,2.37,0-.16,0-.31,0-.51s.81,2.14.8,2.05a15.23,15.23,0,0,0-1.6-4.09,27.4,27.4,0,0,0-3.48-5.05l.11-.08a28.18,28.18,0,0,1,3.62,5,20.67,20.67,0,0,1,2,4.52,15.85,15.85,0,0,0-1.6-4.91,21.27,21.27,0,0,1,2.3,5.59,20.41,20.41,0,0,0-1.53-5.81,29.76,29.76,0,0,0-2.76-4.51l0,0-.28-.34.25.3s-.2-.31-.16-.31c-.43-.51-.89-1-1.33-1.5h0l.87.95h0a.67.67,0,0,1,.1.12h0c.27.31.54.63.79,1A10.41,10.41,0,0,0,54,11.27a8.46,8.46,0,0,1-.85-.93h0s0-.05,0-.06l-.3-1a1.58,1.58,0,0,0-.51-.45l-.1,0c-.26-.27-.59-.54-.88-.79s-.49-.46-.76-.67a.44.44,0,0,0-.23-.17Q50,7,49.82,6.85c.11,0,.11,0-.21-.29s-.24-.25-.61-.31h0a.62.62,0,0,1,0-.67l-.54-.08a6.28,6.28,0,0,1-1.07-.17c-.46-.24-.92-.46-1.39-.67s-.82-.43-1.25-.63a29.63,29.63,0,0,0-3.08-1.1h-.18l-.64-.27h0a6.77,6.77,0,0,1,.77.22c.26,0,3.09-.16,3.09-.17a18,18,0,0,0,2.14.94,9,9,0,0,1,1.41.51A32.27,32.27,0,0,0,42.73,1.9L43,2A32.92,32.92,0,0,0,37,.41,32.35,32.35,0,0,0,13,6.08a31.52,31.52,0,0,0-8.38,9A30.35,30.35,0,0,0,.14,34a31.25,31.25,0,0,0,.69,5.45,30.47,30.47,0,0,0,5,11.2,31.49,31.49,0,0,0,21.48,12.8,30.17,30.17,0,0,0,17.84-3c-1.2.28-2.62.89-3.65,1.09l-1,.07a2.57,2.57,0,0,0-.4.07c-.39.11-.71.19-1.12.27-.21,0-.91.16-.25.1a6.26,6.26,0,0,1-1.68.52,5.12,5.12,0,0,1-.67.07,4,4,0,0,0-.85.32,31.59,31.59,0,0,1-8.07-.24,7.12,7.12,0,0,1-.84-.15l.82.26c.08,0,.54.16.66.2l-.67-.1a19.15,19.15,0,0,1-2.5-.53c-.66-.18-1.32-.39-2-.57L22,61.65a24.09,24.09,0,0,1-6.53-3.12l-.08-.06c-.13-.06-1-.79-1.22-1-.44-.34-1.53-1-1.53-1-.67-.52-1.3-1.06-1.94-1.62-.4-.35-1.16-1.16-1.16-1.16a31.38,31.38,0,0,1-2.43-2.86c-.2-.22-.4-.45-.58-.68a5.86,5.86,0,0,1-.45-.58c-.22-.3-.43-.61-.64-.92.36.51.73,1,1.12,1.48a31.3,31.3,0,0,0,9.19,7.78,32,32,0,0,0,8.52,3.26,6.18,6.18,0,0,0,1.24.4c.68.13,1.35.24,2,.32a32.13,32.13,0,0,0,6.12.18c.53,0,1.58-.17,1.58-.17a34.13,34.13,0,0,0,3.63-.53c.36-.06.71-.13,1.06-.22a3.24,3.24,0,0,0,.49-.13c.82-.23,1.6-.47,2.4-.75a11.69,11.69,0,0,1,1.62-.71c.51-.18,1-.34,1.52-.53a8.77,8.77,0,0,0,1.1-.56l.1.23a24.94,24.94,0,0,0,2.38-1.82,6,6,0,0,0,.55-.29c-.12.37.79-.11.88-.13h0c.59-.54,1.17-1.09,1.71-1.68.07-.09.3-.54.52-1l0,0-.16.37c0,.07.38-.23.4-.24l.43-.53-.08-.09c.65-.57,1.27-1.14,1.87-1.77.08-.09-.71.73-1.88,1.75L53.62,53l-.34.75,0,0c.15-.32.29-.62.36-.79l-.22-.26a23.66,23.66,0,0,0,4.1-4.62c.53-.64,1-1.25,1.49-1.92-.26.3-.64.67-.87,1l0,0c.1-.12,1.23-1.68.39-.68a7.84,7.84,0,0,0,.62-1.27c-.29.43-.56,1-.85,1.41a5.82,5.82,0,0,1-.44.66c.44-.66.85-1.34,1.24-2a2.28,2.28,0,0,1-.22.28c-.43.74-.89,1.46-1.38,2.17l-.16.17a.49.49,0,0,1,0,.11c-.35.48-.71,1-1.09,1.41s-.64.8-1,1.17l-.33.3c.39-.41.76-.83,1.12-1.26a1.18,1.18,0,0,0,.23-.27,27.7,27.7,0,0,0,2.36-3.35v0c.22-.37.44-.74.65-1.12-.25.42-.54.83-.79,1.25a5.87,5.87,0,0,1-.74,1.12c-.08.09-.14.19-.22.28a31.8,31.8,0,0,0,1.32-3.65,32.63,32.63,0,0,1-2.17,4.74l.08-.06-.12.16,0-.07c-.35.37-.72.73-1.09,1.08a2.27,2.27,0,0,1-.29.4v.06a1.77,1.77,0,0,0-.4.42L55,50.4c.14-.23.12-.19,0,0,0,0,.19-.18.27-.28s.08,0,.08,0c-.36.4-.74.78-1.12,1.16,0,0,0,0,0,0,.12-.21.22-.43.33-.64.35-.3.67-.63,1-.94a.86.86,0,0,0,.17-.31l-.21.23c.16-.37.12-.32-.05,0l-.19.18a4,4,0,0,1,.52-.67c.2-.23.39-.41.59-.63h-.22l0,0,0-.06h-.23a.27.27,0,0,1-.07.08,11.53,11.53,0,0,1-1,1.31c.44-1,.42-.76,1.15-1.75-.27.34-.56.67-.85,1a1.54,1.54,0,0,1,.34-.66l-.19.24a1.18,1.18,0,0,1,.17-.24l-.09,0c0-.1.34-1.15.31-1.16a7.28,7.28,0,0,0,1.14-1.69,4.55,4.55,0,0,1,.54-1.17,27.48,27.48,0,0,1-2.22,3.36l-1,.57a11.71,11.71,0,0,1-1.26,1.38c.6-.94.51-.83-.13.12l-.64.55c.39-.42.76-.86,1.12-1.32l.55-.54c-.8.41-.53.25-1.2,1,.29-.2-.14.16-.1.13l0-.07c-.22.23-.45.46-.68.68l0,.05c-.06.15-.18.42-.31.69l0,0,.3-.65.2.23c1-.89,1.71-1.62,1.64-1.54a21.65,21.65,0,0,1-1.63,1.55l.07.08-.38.46s-.33.27-.34.21L51.6,51l0,0c-.19.39-.4.79-.45.86-.48.52-1,1-1.5,1.48h0c-.07,0-.87.44-.77.12a3.64,3.64,0,0,1-.47.25,22.87,22.87,0,0,1-2.08,1.59l-.09-.2a8.7,8.7,0,0,1-1,.49L43.92,56a10.52,10.52,0,0,0-1.42.62c-.69.25-1.38.46-2.09.66a3.89,3.89,0,0,1-.43.11c-.31.08-.61.14-.93.19a28,28,0,0,1-3.16.46s-.92.13-1.38.16a29,29,0,0,1-5.35-.16c-.59-.08-1.18-.17-1.77-.28a5,5,0,0,1-1.08-.35,27.74,27.74,0,0,1-7.44-2.85,27.36,27.36,0,0,1-8-6.79c-.34-.43-.66-.85-1-1.3.18.28.37.54.56.81.07.09.32.45.39.51s.33.4.51.59a26.31,26.31,0,0,0,2.12,2.49s.66.71,1,1c.55.49,1.11,1,1.69,1.41,0,0,1,.6,1.33.89.22.18,1,.81,1.07.87l.07,0a21.16,21.16,0,0,0,5.71,2.73l.8.13,1.72.51A20.09,20.09,0,0,0,29,59l.59.08a5.83,5.83,0,0,1-.58-.17l-.72-.23c.14,0,.63.14.74.14a28.11,28.11,0,0,0,7,.2,3.68,3.68,0,0,1,.74-.28,3.71,3.71,0,0,0,.6-.06,5.45,5.45,0,0,0,1.46-.45c-.58,0,0-.06.22-.09.35-.07.63-.14,1-.24l.35-.06.9-.06c.9-.18,2.14-.7,3.19-.95a26,26,0,0,1-4.27,1.73,26.54,26.54,0,0,1-11.31.9A27.42,27.42,0,0,1,10.2,48.27a26.75,26.75,0,0,1-4.39-9.78,27.3,27.3,0,0,1-.6-4.76A26.54,26.54,0,0,1,9.08,17.17,27.42,27.42,0,0,1,16.4,9.35a28.27,28.27,0,0,1,21-5A29.11,29.11,0,0,1,42.6,5.74l-.2,0a27.22,27.22,0,0,1,4.84,2A7.52,7.52,0,0,0,46,7.24a14.36,14.36,0,0,1-1.86-.82l-2.7.15a3.93,3.93,0,0,0-.67-.19h0l.55.24h.17c.91.28,1.81.6,2.69,1,.37.17.73.35,1.09.54s.81.38,1.21.59a5.59,5.59,0,0,0,.94.15l.47.06a.55.55,0,0,0,0,.59h0c.33.05.15-.07.54.27s.28.28.18.25l.4.29a.46.46,0,0,1,.2.14c.24.19.42.39.66.59a8.42,8.42,0,0,1,.77.69l.09,0a1.65,1.65,0,0,1,.44.39l.26.84,0,.05h0Zm0,0h0l-.06-.07h0Z"/></g></g></svg>