<svg xmlns="http://www.w3.org/2000/svg" viewBox="0 0 59.27 68.36"><defs><style>.cls-1,.cls-2{fill:#fff;}.cls-2{fill-rule:evenodd;}</style></defs><g id="Layer_2" data-name="Layer 2"><g id="Layer_1-2" data-name="Layer 1"><g id="Layer_2-2" data-name="Layer 2"><g id="Layer_1-2-2" data-name="Layer 1-2"><rect class="cls-1" y="66.99" width="59.22" height="1.12"/><path class="cls-2" d="M29.24,35.36c-.64-1.12-2.07-2.27-1.1-7C25.39,21.42,27,21,31.34,24.7a6.93,6.93,0,0,1,3.74-.7,6.9,6.9,0,0,1,3.74.71c4.33-3.71,6-3.28,3.2,3.65.93,4.46-.24,5.75-1,6.81-1.62,2.37,1.08,7.8.81,11.37-.42,5.67-5.47,10-1.24,17,1,1.68,1.54,1,2.32,1.73s1.07,2.93.31,3a36.31,36.31,0,0,1-5.11,0c-1.45-.11-1.1-1.56-1.34-2.52a10.85,10.85,0,0,0-.61-1.45c-.37-.79-.8-.84-1-1.38s0-1-.06-1.59A18.48,18.48,0,0,0,34.51,59C34,57,31.8,62.92,33,64.35c1,1.25,2.43.52,3,1.55a2.34,2.34,0,0,1,.13,1.8c-.17.44-1.09.64-3.71.6l-21.22-.4C-.51,67.69-.26,58.57,5,54.55c1.39-1,2.2.6,1.35,1.4-6.13,5.33-.77,11,5,9.41-2-12.21,5.41-9.81,13.42-23.7,1.33-2.3,6.25-3.21,4.48-6.3"/><path class="cls-1" d="M49.37,15.32l-.11.12.28.21c-.07-.11-.11-.22-.17-.33m-2.19-2.61-.25-.33-.16-.06Zm.79.69a.93.93,0,0,0-.33-.26l.07.06Zm.69,1,.57.49c-.11-.14-.67-.83-1.11-1.3l-.39-.28a10.53,10.53,0,0,1,.93,1.06Zm-.9,2.83-.39-.42.16.4a2,2,0,0,1-.23-.46l-.31-.3.41.57a21.84,21.84,0,0,0-2-1.72l-.57-.41s.67.43.52.21a4,4,0,0,0-.65-.57l-.21-.12h0l-.5-.26c.22.2.44.41.65.63a19.7,19.7,0,0,0-3.59-2,22.35,22.35,0,0,1,2.66,1c.41.14,0-.1-.31-.32a19.52,19.52,0,0,0-1.78-.87,20.62,20.62,0,0,0-3.3-.8,19.32,19.32,0,0,1,2.46.85A23,23,0,0,0,38.17,12l-.75-.12h-.31a19.88,19.88,0,0,0-2-.32,21.17,21.17,0,0,0-5,.62c-.44.11-.87.24-1.31.38a17.85,17.85,0,0,0-1.7.57h.17a13.2,13.2,0,0,0-1.32.62H25.8c-.4.21-.79.43-1.18.66s-1,.49-1.44.76v.11l-.22.06-.17.06a20.14,20.14,0,0,0-5.07,5.1A19.84,19.84,0,0,0,14.39,34.6a20.59,20.59,0,0,0,2.37,7.11,22.11,22.11,0,0,0,3.9,5.07,12.51,12.51,0,0,1-1-.93c-.22-.23-.73-.67-.73-.67a20,20,0,0,1-1.55-1.77l-.51-.85q-.21-.33-.39-.66a19.3,19.3,0,0,1-1.64-3.79c-.19-.61-.64-1.9-.64-1.9a3.33,3.33,0,0,0-.1-.55c0-.18-.09-.44-.14-.66v1.19c-.07-.5-.11-1-.14-1.5a3.53,3.53,0,0,1,0-.46,7.63,7.63,0,0,1-.11-2.43c-.06-.22-.1-.45-.14-.67a8.34,8.34,0,0,1,0-1,5,5,0,0,0,.09-.77,4.87,4.87,0,0,0-.1-.65,7,7,0,0,1,.18-.93c0-.14.12-.57.09-.15a4.33,4.33,0,0,0,.36-.62h0l.06-.19a1.18,1.18,0,0,0,.1-.3h0l.07-.16c1-2.67,1-3.46,2.69-6.25a20.82,20.82,0,0,1,2.53-3.23c-.5.29-1,.58-1.47.91L18,18v.06c-.25.36-.53.72-.79,1.08l-.52.59c-.21.25-.42.5-.62.76l.45-.75a.3.3,0,0,0,.08-.08c.92-.84.71-.69,0-.07l.4-.54-.27.26a3.25,3.25,0,0,1-.23.29l-.57.79a1.46,1.46,0,0,1-.22.33h0l-.22.37h-.06a20.91,20.91,0,0,0-1.6,3.08c-.06.25-.16.76-.16.76s-.1,1.07-.14,1.21-.09.43-.14.64a27.14,27.14,0,0,0-.39,3.6c-.05.56-.07,1.13-.13,1.69v.1a21.47,21.47,0,0,0-.17,2.66v.93a20.83,20.83,0,0,0,2.71,6.73c2,2.86,1.23,2.49,5.37,5.76a20.67,20.67,0,0,0,4.67,2.41h.61a23.9,23.9,0,0,1-4.67-3.24,6.11,6.11,0,0,0,1.14.58c1.4.68,2.51,1.33,4,1.92l.47.3a9.91,9.91,0,0,0,1.19.31h0L30,51h-.92a22.88,22.88,0,0,0,5.35.42.93.93,0,0,0,.36.14L36,51.35a1.86,1.86,0,0,0,.34-.06l1-.24c.52-.12,1-.26,1.54-.43A4.83,4.83,0,0,0,40,50.28c.31-.15.61-.32.9-.49h-.11c.21-.11.35-.17.56-.26L42.6,49c.28-.13.49-.29.75-.44h0c.61-.33.36-.23.87-.32l.49-.25a6,6,0,0,0,.72-.59h.12c.21-.18.41-.36.61-.56.4-.38.79-.76,1.18-1.16h0c-.13.17-.25.35-.39.52l.45-.47.1.09a19.2,19.2,0,0,1-2,1.82,14.24,14.24,0,0,0-1,1.27l.32-.24.61-.49a18.46,18.46,0,0,0,2.19-2.32l-1.53,1.86a9.88,9.88,0,0,0,1.15-1.09c2.86-3.1-1.07,1.15-1.72,1.73-.34.3-.68.56-1,.82a.24.24,0,0,0,.13.07h.12A13.91,13.91,0,0,0,46.17,48h0l0,0,.09-.08h-.23a1.69,1.69,0,0,1,.37-.29c.16-.09.12,0,.27-.14a3.08,3.08,0,0,1,.27-.25c.31-.33.62-.68.91-1l.25.21.45-.51-.35.23A38.55,38.55,0,0,0,51,42.68c-.07.25-1.37,2.23-1.37,2.25a3.56,3.56,0,0,1-.47.63,2,2,0,0,0-.42.44h0a1.64,1.64,0,0,1-.26.33l.06-.1c.13-.11.14-.13,0,0a1.16,1.16,0,0,1,.16-.21,4.81,4.81,0,0,0-.42.48h.06c.22-.25.43-.51.64-.76l.07-.08h0l-.1.17a3,3,0,0,0,.39-.49c.12-.17.21-.35.33-.51V45h0s0,.09.05.13l-.05.08c-.39.47-.77.94-1.17,1.41h0v0c.17-.16.33-.32.48-.49.3-.39.58-.79.85-1.19a2.5,2.5,0,0,1,.21-.35h0c.4-.67.77-1.23,1.14-1.94a8.81,8.81,0,0,0,.52-1.18c-.17.37-.36.75-.57,1.16-.37.68-.76,1.33-1.2,2a.55.55,0,0,0-.28.07,20.33,20.33,0,0,0,1.35-2c.35-.64.65-1.24.91-1.85v.4c0,.16.62-1.68.61-1.61a11.85,11.85,0,0,1-1.23,3.2,21.5,21.5,0,0,1-2.68,4l.07.07A20.91,20.91,0,0,0,51.49,43,15.61,15.61,0,0,0,53,39.42a12,12,0,0,1-1.23,3.85,16.6,16.6,0,0,0,1.78-4.37,15.94,15.94,0,0,1-1.19,4.54A22.22,22.22,0,0,1,50.27,47h0l-.22.27.2-.24s-.15.24-.12.24c-.34.4-.69.78-1,1.18h0c.23-.24.46-.49.68-.74h0a.38.38,0,0,0,.09-.09h0c.21-.24.42-.49.62-.74a8.47,8.47,0,0,1-.69.89,6.4,6.4,0,0,0-.65.72h0a0,0,0,0,1,0,0l-.23.75a1.2,1.2,0,0,1-.39.35h-.08a6.67,6.67,0,0,1-.68.62c-.21.18-.38.36-.59.53,0,0-.11.12-.17.12l-.35.26c.09,0,.08,0-.16.23s-.19.2-.48.24h0a.49.49,0,0,0,0,.52l-.42.06a4.69,4.69,0,0,0-.82.14c-.36.18-.71.36-1.07.52l-1,.49a21.75,21.75,0,0,1-2.38.86h-.14l-.49.22h0a2.59,2.59,0,0,0,.59-.16l2.38.13a12.74,12.74,0,0,1,1.65-.73,6,6,0,0,0,1.09-.41A24,24,0,0,1,41.17,55h.18a26.28,26.28,0,0,1-4.63,1.21,24.74,24.74,0,0,1-25-11.45A24,24,0,0,1,8.31,29.92a24.07,24.07,0,0,1,21-23A23,23,0,0,1,43.06,9.24c-.93-.22-2-.69-2.82-.85l-.8-.06a1.12,1.12,0,0,1-.31-.05c-.3-.08-.55-.15-.86-.21S37.56,8,38.07,8a4.52,4.52,0,0,0-1.29-.41h-.52a3.09,3.09,0,0,1-.66-.25,24,24,0,0,0-6.22.18,5,5,0,0,0-.65.13l.63-.21.51-.15-.52.07a18.23,18.23,0,0,0-1.92.41l-1.53.46a3.42,3.42,0,0,0-.7.12,18.41,18.41,0,0,0-5,2.44h-.06c-.1.05-.76.63-.95.78s-1.17.8-1.17.8c-.52.41-1,.83-1.5,1.27-.32.27-.9.91-.9.9a26.84,26.84,0,0,0-1.88,2.24c-.15.17-.3.35-.44.53a4,4,0,0,0-.35.46c-.17.23-.33.47-.49.72.28-.4.56-.78.86-1.16A24.21,24.21,0,0,1,27,8.67a4.79,4.79,0,0,1,1-.31c.53-.1,1-.19,1.57-.25A24.41,24.41,0,0,1,34.19,8a10.1,10.1,0,0,1,1.22.14,26.25,26.25,0,0,1,2.8.42,3.84,3.84,0,0,1,.82.16l.38.11c.63.18,1.24.37,1.85.59a9.88,9.88,0,0,0,1.25.55c.39.15.79.27,1.18.42a6.71,6.71,0,0,1,.84.44l.08-.18A17.38,17.38,0,0,1,46.45,12l.42.22c-.09-.29.61.09.68.11h0c.45.42.9.86,1.32,1.32,0,.07.23.42.4.78h0l-.12-.28c0-.06.29.18.3.19l.34.41-.07.07a19,19,0,0,1,1.45,1.39c.06.07-.55-.58-1.45-1.38l-.18.21-.26-.59h0c.11.25.22.49.27.62l-.17.2a18.23,18.23,0,0,1,3.17,3.62c.41.49.77,1,1.15,1.5-.21-.23-.5-.52-.67-.75h0c.07.1,1,1.32.3.54a5.08,5.08,0,0,1,.47,1c-.22-.33-.42-.75-.65-1.1a3.58,3.58,0,0,0-.34-.52c.34.52.68,1.05,1,1.59a1.84,1.84,0,0,0-.17-.22c-.33-.58-.69-1.14-1.07-1.69l-.12-.14a.11.11,0,0,0,0-.08l-.88-1c-.27-.28-.5-.63-.78-.91l-.25-.24c.3.32.58.65.86,1a1,1,0,0,1,.18.22,19.75,19.75,0,0,1,1.82,2.62h0c.17.29.34.58.5.88-.19-.33-.41-.65-.61-1a5,5,0,0,0-.57-.87l-.17-.23a26.17,26.17,0,0,1,1,2.86,25.25,25.25,0,0,0-1.68-3.71l.06.05-.09-.12a0,0,0,0,1,0,.05c-.27-.29-.55-.57-.84-.85a2.18,2.18,0,0,0-.22-.31h0a1.93,1.93,0,0,1-.31-.33l.1.09h0a1.37,1.37,0,0,1,.2.22h.07c-.28-.31-.57-.61-.87-.91h0c.09.16.17.33.25.5.27.24.51.49.77.73a.89.89,0,0,1,.14.25L51,17.75h0l-.15-.15a3.56,3.56,0,0,0,.41.53c.15.19.3.33.45.5h-.39l-.06-.06a9.08,9.08,0,0,0-.76-1A4.48,4.48,0,0,0,51.38,19l-.66-.78a1.41,1.41,0,0,0,.26.52,1.33,1.33,0,0,1-.14-.19c0,.06.09.14.12.19s0,0-.06,0a8,8,0,0,0,.24.9A5.93,5.93,0,0,1,52,20.85a3.07,3.07,0,0,0,.42.92,20.86,20.86,0,0,0-1.72-2.63l-.7-.45a9.18,9.18,0,0,0-1-1.07c.46.73.39.64-.1-.1l-.5-.43c.3.33.59.68.87,1l.42.42c-.61-.31-.41-.19-.92-.74.22.16-.11-.12-.08-.1v.06c-.26-.28-.51-.53-.78-.78Z"/><path class="cls-1" d="M53.35,52.67l-.14-.16.36-.27c-.08.14-.14.29-.22.43M50.51,56a4.63,4.63,0,0,0-.32.42l-.2.08Zm1-.88a1.38,1.38,0,0,1-.43.32l.09-.07Zm.9-1.24.73-.63c-.13.18-.86,1.06-1.42,1.66l-.51.36a17.58,17.58,0,0,0,1.22-1.39Zm-3.24-.94a3.18,3.18,0,0,0-.27.37l-.19.07Zm.9-.77a1.53,1.53,0,0,1-.38.29l.08-.07Zm1.42-1.62h0l-.64.55c-.33.42-.68.82-1.05,1.21l.44-.31c.51-.52,1.13-1.29,1.27-1.45Zm0-37.41.22-.19.59.66-.45-.3a48.59,48.59,0,0,1,3.56,4.38c-.1-.32-1.79-2.84-1.78-2.87A4.63,4.63,0,0,0,53,14a2.87,2.87,0,0,1-.54-.56h0a1.74,1.74,0,0,0-.34-.42.83.83,0,0,1,.08.12h0l.21.27-.53-.62.07,0c.28.31.56.64.83,1l.09.1s-.08-.11,0-.07h0a2.39,2.39,0,0,0-.13-.21,3.06,3.06,0,0,1,.51.63c.16.21.27.44.42.65a.75.75,0,0,1,.05-.16v0l.06-.17-.06-.09c-.51-.61-1-1.21-1.52-1.81h0c1,.79,1,.75,0,0l.07-.06c.22.2.42.41.63.62.38.5.74,1,1.09,1.53a4.08,4.08,0,0,0,.28.44h0c.51.86,1,1.57,1.47,2.48A10,10,0,0,1,56.39,19a15.42,15.42,0,0,0-.73-1.47A25.28,25.28,0,0,0,54.1,15a.68.68,0,0,1-.36-.1,26.72,26.72,0,0,1,1.76,2.71c.45.82.84,1.59,1.18,2.37v-.51c0-.2.81,2.14.8,2.05a15,15,0,0,0-1.6-4.09,26.84,26.84,0,0,0-3.48-5l.11-.08a27.82,27.82,0,0,1,3.62,5,20.28,20.28,0,0,1,2,4.52,15.81,15.81,0,0,0-1.6-4.91,21,21,0,0,1,2.3,5.59,20.2,20.2,0,0,0-1.53-5.81,29.76,29.76,0,0,0-2.76-4.51h0l-.28-.34.25.3s-.2-.31-.16-.31c-.43-.51-.89-1-1.33-1.5h0l.87.95h0a.4.4,0,0,1,.1.12h0a10.24,10.24,0,0,1,.79,1A9.93,9.93,0,0,0,54,11.27a9.37,9.37,0,0,1-.85-.93h0v-.06l-.3-1a1.47,1.47,0,0,0-.51-.45h-.1c-.26-.27-.59-.54-.88-.79s-.49-.46-.76-.67a.4.4,0,0,0-.23-.17,3.56,3.56,0,0,1-.55-.35c.11,0,.11,0-.21-.29s-.24-.25-.61-.31h0a.62.62,0,0,1,0-.67l-.54-.08a6.44,6.44,0,0,1-1.07-.17c-.46-.24-.92-.46-1.39-.67s-.82-.43-1.25-.63a29.63,29.63,0,0,0-3.08-1.1h-.18l-.64-.27h0a6.77,6.77,0,0,1,.77.22c.26,0,3.09-.16,3.09-.17a18.51,18.51,0,0,0,2.14.94,8.45,8.45,0,0,1,1.41.51A32.42,32.42,0,0,0,42.72,1.9L43,2A32.1,32.1,0,0,0,13,6.08a31.69,31.69,0,0,0-8.38,9A30.4,30.4,0,0,0,.13,34a31.25,31.25,0,0,0,.69,5.45,30.5,30.5,0,0,0,5,11.2A31.49,31.49,0,0,0,27.3,63.45a30.16,30.16,0,0,0,17.84-3c-1.2.28-2.62.89-3.65,1.09l-1,.07a1.87,1.87,0,0,0-.4.07c-.39.11-.71.19-1.12.27-.21,0-.91.16-.25.1a6.18,6.18,0,0,1-1.68.52,4.9,4.9,0,0,1-.67.07,3.8,3.8,0,0,0-.85.32,32.07,32.07,0,0,1-8.07-.24,6.17,6.17,0,0,1-.84-.15l.82.26a5.93,5.93,0,0,1,.66.2l-.67-.1a19.5,19.5,0,0,1-2.5-.53c-.66-.18-1.32-.39-2-.57L22,61.65a24.38,24.38,0,0,1-6.53-3.12l-.08-.06a14,14,0,0,1-1.22-1c-.44-.34-1.53-1-1.53-1-.67-.52-1.3-1.06-1.94-1.62-.4-.35-1.16-1.16-1.16-1.16A33.07,33.07,0,0,1,7.1,50.83c-.2-.22-.4-.45-.58-.68s-.31-.38-.45-.58-.43-.61-.64-.92c.36.51.73,1,1.12,1.48a31.41,31.41,0,0,0,9.19,7.78,32.15,32.15,0,0,0,8.52,3.26,6.18,6.18,0,0,0,1.24.4c.68.13,1.35.24,2,.32a32.94,32.94,0,0,0,6.12.18,13.94,13.94,0,0,0,1.58-.17,34.13,34.13,0,0,0,3.63-.53c.36-.06.71-.13,1.06-.22a3.92,3.92,0,0,0,.49-.13c.82-.23,1.6-.47,2.4-.75a11.06,11.06,0,0,1,1.62-.71L45.92,59a8.74,8.74,0,0,0,1.1-.56l.1.23a24.94,24.94,0,0,0,2.38-1.82c.19-.09.37-.19.55-.29-.12.37.79-.11.88-.13h0c.59-.54,1.17-1.09,1.71-1.68a10.48,10.48,0,0,0,.52-1h0l-.16.37c0,.07.38-.23.4-.24l.43-.53-.08-.09c.65-.57,1.27-1.14,1.87-1.77.08-.09-.71.73-1.88,1.75L53.61,53l-.34.75h0c.15-.32.29-.62.36-.79l-.22-.26a23.7,23.7,0,0,0,4.1-4.62c.53-.64,1-1.25,1.49-1.92-.26.3-.64.67-.87,1h0c.1-.12,1.23-1.68.39-.68a7.84,7.84,0,0,0,.62-1.27c-.29.43-.56,1-.85,1.41a5.82,5.82,0,0,1-.44.66c.44-.66.85-1.34,1.24-2a1.93,1.93,0,0,1-.22.28c-.43.74-.89,1.46-1.38,2.17l-.16.17a.2.2,0,0,1,0,.11,15.92,15.92,0,0,1-1.09,1.41c-.38.41-.64.8-1,1.17l-.33.3c.39-.41.76-.83,1.12-1.26a1.18,1.18,0,0,0,.23-.27A27.7,27.7,0,0,0,58.62,46h0c.22-.37.44-.74.65-1.12-.25.42-.54.83-.79,1.25a5.87,5.87,0,0,1-.74,1.12c-.08.09-.14.19-.22.28a30,30,0,0,0,1.32-3.65,32.15,32.15,0,0,1-2.17,4.74l.08-.06-.12.16v-.07c-.35.37-.72.73-1.09,1.08a2.27,2.27,0,0,1-.29.4v.06a2,2,0,0,0-.4.42L55,50.4h0s.19-.18.27-.28.08,0,.08,0c-.36.4-.74.78-1.12,1.16h0c.12-.21.22-.43.33-.64.35-.3.67-.63,1-.94a.79.79,0,0,0,.17-.31l-.21.23c.16-.37.12-.32,0,0l-.19.18a4.28,4.28,0,0,1,.52-.67c.2-.23.39-.41.59-.63h-.22v-.06h-.23a.27.27,0,0,1-.07.08,10.55,10.55,0,0,1-1,1.31A5.93,5.93,0,0,1,56,48.08c-.27.34-.56.67-.85,1a1.6,1.6,0,0,1,.34-.66l-.19.24a1.46,1.46,0,0,1,.17-.24h-.09c0-.1.34-1.15.31-1.16a7.38,7.38,0,0,0,1.14-1.69,4.8,4.8,0,0,1,.54-1.17,27.48,27.48,0,0,1-2.22,3.36l-1,.57a11.71,11.71,0,0,1-1.26,1.38c.6-.94.51-.83-.13.12l-.64.55c.39-.42.76-.86,1.12-1.32l.55-.54c-.8.41-.53.25-1.2,1,.29-.2-.14.16-.1.13v-.07c-.22.23-.45.46-.68.68v.05c-.06.15-.18.42-.31.69h0l.3-.65.2.23c1-.89,1.71-1.62,1.64-1.54A21.75,21.75,0,0,1,52,50.59l.07.08-.38.46s-.33.27-.34.21l.22-.34h0c-.19.39-.4.79-.45.86-.48.52-1,1-1.5,1.48h0c-.07,0-.87.44-.77.12a3.5,3.5,0,0,1-.47.25,21.56,21.56,0,0,1-2.08,1.59l-.09-.2a8.42,8.42,0,0,1-1,.49L43.91,56a10.52,10.52,0,0,0-1.42.62c-.69.25-1.38.46-2.09.66l-.43.11c-.31.08-.61.14-.93.19a28,28,0,0,1-3.16.46s-.92.13-1.38.16A29,29,0,0,1,29.15,58c-.59-.08-1.18-.17-1.77-.28a5.24,5.24,0,0,1-1.08-.35,28,28,0,0,1-7.44-2.85,27.47,27.47,0,0,1-8-6.79c-.34-.43-.66-.85-1-1.3.18.28.37.54.56.81.07.09.32.45.39.51s.33.4.51.59a29.63,29.63,0,0,0,2.12,2.49s.66.71,1,1a20,20,0,0,0,1.69,1.41,14.24,14.24,0,0,1,1.33.89l1.07.87h.07a21.29,21.29,0,0,0,5.71,2.73l.8.13,1.72.51A20.29,20.29,0,0,0,29,59l.59.08c-.19,0-.39-.1-.58-.17l-.72-.23c.14,0,.63.14.74.14a28.29,28.29,0,0,0,7,.2,3.51,3.51,0,0,1,.74-.28l.6-.06a5.27,5.27,0,0,0,1.46-.45c-.58,0,0-.06.22-.09s.63-.14,1-.24l.35-.06.9-.06c.9-.18,2.14-.7,3.19-1A26.26,26.26,0,0,1,28.9,59.46,27.47,27.47,0,0,1,10.19,48.27,26.77,26.77,0,0,1,5.8,38.49a27.3,27.3,0,0,1-.6-4.76A26.54,26.54,0,0,1,9.07,17.17a27.43,27.43,0,0,1,7.32-7.82,28.26,28.26,0,0,1,21-5,28.89,28.89,0,0,1,5.2,1.39h-.2a27,27,0,0,1,4.84,2A7.47,7.47,0,0,0,46,7.24a14,14,0,0,1-1.86-.82l-2.7.15a3.69,3.69,0,0,0-.67-.19h0l.55.24h.17a22.36,22.36,0,0,1,2.69,1c.37.17.73.35,1.09.54s.81.38,1.21.59a5.11,5.11,0,0,0,.94.15l.47.06a.57.57,0,0,0,0,.59h0c.33,0,.15-.07.54.27s.28.28.18.25l.4.29a.41.41,0,0,1,.2.14c.24.19.42.39.66.59a7.16,7.16,0,0,1,.77.69h.09a1.49,1.49,0,0,1,.44.39l.26.84v.05h0Zm0,0h0l-.06-.07h0Z"/></g></g></g></g></svg>