<svg xmlns="http://www.w3.org/2000/svg" viewBox="0 0 203.86 198.86"><defs><style>.cls-1{fill:#6667a8;}.cls-2{fill:none;stroke:#4d4d4d;stroke-miterlimit:10;stroke-width:3px;}.cls-3{fill:#fff;}</style></defs><g id="Layer_2" data-name="Layer 2"><g id="Layer_1-2" data-name="Layer 1"><circle class="cls-1" cx="106.18" cy="101.18" r="97.68"/><circle class="cls-2" cx="99.18" cy="99.18" r="97.68"/><ellipse class="cls-3" cx="71.58" cy="82.68" rx="8.4" ry="18.5"/><ellipse class="cls-3" cx="122.88" cy="82.68" rx="8.4" ry="18.5"/><path class="cls-3" d="M53.29,125.13a52,52,0,0,0,6.51,20.65,41.77,41.77,0,0,0,24.07,19.08c19.79,6,43.05-1.56,55.62-17.91a55.59,55.59,0,0,0,10.28-23.12c.38-1.89-2.52-2.7-2.89-.8a54.1,54.1,0,0,1-7.34,18.63A47.08,47.08,0,0,1,117,160.15,50.61,50.61,0,0,1,88.67,163a39,39,0,0,1-24.38-15.72,48.23,48.23,0,0,1-8-22.13c-.2-1.9-3.2-1.92-3,0Z"/></g></g></svg>