<svg id="Layer_1" data-name="Layer 1" xmlns="http://www.w3.org/2000/svg" viewBox="0 0 317.53 71.19"><path d="M298.51,128.65c0,5.69,0,10.57-.31,13.17-.18,1.79-.55,3.15-1.79,3.4a10.43,10.43,0,0,1-2.23.24c-.74,0-1,.19-1,.5s.43.62,1.23.62c2.47,0,6.37-.19,7.79-.19,1.73,0,5.62.19,9.7.19.68,0,1.18-.19,1.18-.62s-.31-.5-1-.5a26.64,26.64,0,0,1-3.15-.24c-1.86-.25-2.23-1.61-2.41-3.34-.31-2.66-.31-7.54-.31-13.23V103.31l7.79.18c5.5.13,7.17,1.86,7.29,3.46l.06.68c.06.93.19,1.24.68,1.24s.5-.37.56-1c0-1.6.18-5.87.18-7.17,0-.92-.06-1.3-.49-1.3a16.46,16.46,0,0,0-1.67.31,28.76,28.76,0,0,1-4.27.31H291.9c-2,0-4.39-.12-6.18-.31a13.88,13.88,0,0,1-2.66-.74c-.37,0-.56.37-.74,1.18-.13.49-1.3,6.12-1.3,7.1,0,.68.12,1,.56,1s.55-.24.68-.74a7.25,7.25,0,0,1,1.05-2.16c.92-1.36,2.41-1.67,6-1.8l9.21-.24Zm-43.76-1.3c-.25,0-.31-.18-.25-.43l5.69-15.21c.06-.24.18-.55.37-.55s.25.31.31.55L266.43,127c.06.19,0,.37-.31.37Zm12.55,3.09a.61.61,0,0,1,.62.44l4.94,13.1a1,1,0,0,1-.56,1.42c-.61.06-.86.19-.86.56s.74.43,1.85.49c4.95.13,9.46.13,11.68.13s2.85-.13,2.85-.62-.31-.5-.81-.5a13.93,13.93,0,0,1-2.59-.24c-1.3-.38-3.09-1.23-5.44-6.77-4-9.37-13.85-34.59-15.33-38-.62-1.42-1-2-1.54-2s-1,.68-1.74,2.47l-15.51,38.82c-1.24,3.09-2.41,5.19-5.25,5.56-.5.06-1.36.12-1.92.12s-.74.13-.74.5.37.62,1.17.62c3.22,0,6.62-.19,7.3-.19,1.91,0,4.57.19,6.55.19.68,0,1.05-.13,1.05-.62s-.19-.5-.93-.5h-.93c-1.91,0-2.47-.8-2.47-1.91a11.88,11.88,0,0,1,.93-3.77l3.34-8.84c.12-.37.24-.5.55-.5Zm-45.43,17c3.95,0,8.65-.43,11.12-1.42a2.18,2.18,0,0,0,1.61-1.79A58.68,58.68,0,0,0,236,136c0-.5-.12-.93-.56-.93s-.62.25-.8,1.23a10.28,10.28,0,0,1-2.1,4.08c-2.47,2.85-5.81,3.47-11.31,3.47-8.29,0-19.47-7.3-19.47-22,0-6,1.17-11.87,5.68-16,2.72-2.47,6.25-3.83,11.62-3.83,5.69,0,10.51,1.67,12.55,3.83a8.8,8.8,0,0,1,2.41,5.69c0,.86.12,1.36.62,1.36s.68-.5.74-1.42c.12-1.24.06-4.64.19-6.68s.31-2.9.31-3.4-.25-.68-.93-.74c-1.86-.19-3.83-.74-6.18-1.05a61.26,61.26,0,0,0-9-.62c-9.21,0-15.09,2.47-19.54,6.55A23.28,23.28,0,0,0,193,122.47c0,6,1.61,12.92,7.67,18.23C206.29,145.59,213.4,147.44,221.87,147.44Zm-55.69-11.81c0,1,0,3.59-.19,6.19-.12,1.79-.68,3.15-1.92,3.4a10.1,10.1,0,0,1-2.16.24c-.68,0-1,.19-1,.5,0,.49.5.62,1.36.62,2.29,0,6.18-.19,7.73-.19s5.56.19,9.45.19c.81,0,1.3-.19,1.3-.62s-.31-.5-1-.5a27,27,0,0,1-3.09-.24c-1.85-.25-2.41-1.61-2.53-3.4-.19-2.6-.19-5.2-.19-6.19v-5.06a14.73,14.73,0,0,1,.93-6.18c1.11-2.66,9.77-17.19,11.81-19.66,1.36-1.67,2-2.41,3.33-3a6.79,6.79,0,0,1,2.72-.74c.68,0,1.18-.19,1.18-.62s-.43-.49-1.11-.49c-1.18,0-5.26.18-6.62.18-1.79,0-3.77-.18-5.81-.18-.74,0-1,.12-1,.55s.56.5,1.11.62a1.48,1.48,0,0,1,1.3,1.55,8.17,8.17,0,0,1-.86,3.21c-.87,1.92-8.66,15.51-9.28,17-1-1.73-9.64-16.63-10.5-18.48a5.67,5.67,0,0,1-.75-2.1,1.13,1.13,0,0,1,.87-1.12c.93-.24,1.36-.31,1.36-.68s-.31-.55-.93-.55c-2.78,0-5.31.18-6.61.18-2,0-6.68-.18-7.79-.18-.74,0-1.17.18-1.17.55s.43.56.92.56a6.28,6.28,0,0,1,2.6.8,15.11,15.11,0,0,1,4.26,4.52c2.17,3.21,10.45,16.81,10.88,17.8a13,13,0,0,1,1.43,6.49Zm-47.41-7c0,5.69,0,10.57-.31,13.17-.25,1.79-.56,3.15-1.8,3.4a10.25,10.25,0,0,1-2.22.24c-.74,0-1,.19-1,.5s.43.62,1.24.62c2.47,0,6.36-.19,7.79-.19,1.6,0,5.5.19,9.58.19.68,0,1.17-.19,1.17-.62s-.31-.5-1-.5a26.64,26.64,0,0,1-3.15-.24c-1.86-.25-2.23-1.61-2.41-3.34-.31-2.66-.31-7.54-.31-13.23V103.93c0-.68.18-1.05.49-1.18a9,9,0,0,1,2.41-.25,9.21,9.21,0,0,1,6.19,2.42c3.46,3.09,3.64,7.23,3.64,9.27,0,6.3-4.82,10.2-8.28,10.2-1.3,0-1.73.18-1.73.68s.43.49.74.55a9.43,9.43,0,0,0,1.3.06c8.78,0,15.2-6.18,15.2-15a10.75,10.75,0,0,0-3.09-7.36c-1-.93-3.77-3.52-11.49-3.52-2.85,0-6.43.18-9,.18-1.73,0-5.62-.18-8.9-.18-.92,0-1.36.12-1.36.55s.37.56,1,.56a13,13,0,0,1,2.41.18c2,.44,2.54,1.43,2.66,3.53s.13,3.71.13,13.1Zm-35.92,15.7c-11.86,0-19-10.2-19-23.06C63.88,105.9,72,102,79.08,102c10.14,0,18.11,8.59,18.11,22.44C97.19,142.25,87.18,144.35,82.85,144.35Zm-2.59,3.09c15.7,0,25.59-11.19,25.59-25.34S96.27,99,80.88,99c-18.55,0-25.53,13.66-25.53,24.23C55.35,134.15,62.52,147.44,80.26,147.44Zm-45.49,0c3.95,0,8.65-.43,11.12-1.42a2.18,2.18,0,0,0,1.61-1.79A58.68,58.68,0,0,0,48.86,136c0-.5-.12-.93-.56-.93s-.62.25-.8,1.23a10.28,10.28,0,0,1-2.1,4.08c-2.47,2.85-5.81,3.47-11.31,3.47-8.29,0-19.47-7.3-19.47-22,0-6,1.17-11.87,5.68-16C23,103.37,26.55,102,31.92,102c5.69,0,10.51,1.67,12.55,3.83a8.8,8.8,0,0,1,2.41,5.69c0,.86.12,1.36.62,1.36s.68-.5.74-1.42c.12-1.24.06-4.64.19-6.68s.31-2.9.31-3.4-.25-.68-.93-.74c-1.86-.19-3.83-.74-6.18-1.05a61.3,61.3,0,0,0-9-.62c-9.2,0-15.08,2.47-19.53,6.55A23.28,23.28,0,0,0,5.9,122.47c0,6,1.61,12.92,7.67,18.23C19.19,145.59,26.3,147.44,34.77,147.44Z" transform="translate(-5.59 -98.49)"/><path d="M219.58,164.28c0,1.64,0,3.05-.08,3.8-.06.52-.17.92-.52,1a3.38,3.38,0,0,1-.65.07c-.21,0-.28.05-.28.14s.12.18.35.18c.72,0,1.85-.05,2.26-.05s1.63.05,2.81.05c.19,0,.34-.05.34-.18s-.09-.14-.29-.14a8.83,8.83,0,0,1-.91-.07c-.54-.07-.65-.47-.7-1-.09-.77-.09-2.18-.09-3.82v-7.34l2.25.06c1.6,0,2.08.53,2.11,1l0,.19c0,.27.06.36.2.36s.14-.11.16-.28c0-.47.05-1.7.05-2.08s0-.37-.14-.37a3.23,3.23,0,0,0-.48.09,10,10,0,0,1-1.24.08h-7.08c-.59,0-1.27,0-1.79-.08a4.81,4.81,0,0,1-.77-.22c-.1,0-.16.11-.21.34s-.38,1.77-.38,2.06,0,.28.16.28.17-.07.2-.21a2.34,2.34,0,0,1,.31-.63c.26-.39.69-.48,1.73-.52l2.66-.07Zm-19-7.18c0-.14,0-.21.17-.25a4.06,4.06,0,0,1,.94-.07c1.06,0,2.74.73,2.74,3.27a3.16,3.16,0,0,1-1.06,2.69,1.78,1.78,0,0,1-1.26.3,4.52,4.52,0,0,1-1.36-.18c-.13-.05-.17-.12-.17-.32Zm-2.11,7.18c0,1.64,0,3.05-.08,3.8-.08.52-.17.92-.52,1a3.38,3.38,0,0,1-.65.07c-.21,0-.28.05-.28.14s.12.18.35.18c.72,0,1.85-.05,2.19-.05s1.59.05,2.63.05c.23,0,.35-.05.35-.18s-.07-.14-.21-.14-.61,0-.88-.07c-.53-.07-.64-.47-.7-1-.09-.75-.09-2.16-.09-3.82V164a.13.13,0,0,1,.15-.15l1.55,0a.38.38,0,0,1,.33.13c.23.26,1.05,1.48,1.77,2.46a8.55,8.55,0,0,0,2.45,2.63,3.62,3.62,0,0,0,1.91.34h1.7c.21,0,.34,0,.34-.18s-.07-.14-.22-.14a3.5,3.5,0,0,1-.5,0,3.62,3.62,0,0,1-2-1.22c-1.05-1.11-2.29-2.7-3.88-4.7,1.81-1.47,2.36-2.69,2.36-4a3.07,3.07,0,0,0-1.22-2.45,5.71,5.71,0,0,0-3.29-.77c-.55,0-1.91.05-2.52.05-.37,0-1.5-.05-2.45-.05-.27,0-.39,0-.39.16s.11.16.3.16a3.31,3.31,0,0,1,.7.06c.59.12.73.41.77,1s0,1.07,0,3.79Zm-17.3-.38c-.07,0-.09-.05-.07-.13l1.64-4.39c0-.08.06-.17.11-.17s.07.09.09.17l1.61,4.41c0,.06,0,.11-.09.11Zm3.63.89a.18.18,0,0,1,.18.13l1.43,3.79a.29.29,0,0,1-.16.41c-.18,0-.25.06-.25.16s.21.13.54.15c1.43,0,2.73,0,3.38,0s.82,0,.82-.18-.09-.14-.23-.14a4.29,4.29,0,0,1-.76-.07c-.37-.11-.89-.36-1.57-2-1.14-2.71-4-10-4.43-11-.18-.41-.29-.57-.45-.57s-.29.19-.5.71l-4.49,11.23c-.36.9-.7,1.51-1.52,1.61a4.92,4.92,0,0,1-.56,0c-.14,0-.21,0-.21.14s.11.18.34.18c.93,0,1.91-.05,2.11-.05.55,0,1.32.05,1.9.05.19,0,.3,0,.3-.18s-.05-.14-.27-.14h-.27c-.55,0-.71-.23-.71-.55a3.48,3.48,0,0,1,.27-1.1l1-2.55c0-.11.07-.15.16-.15Zm-27.23-.51c0,1.64,0,3.05-.09,3.8-.07.52-.16.92-.52,1a3.26,3.26,0,0,1-.64.07c-.22,0-.29.05-.29.14s.13.18.36.18l1.23,0c.43,0,.83,0,1,0,.54,0,1.09,0,1.86.05s1.76.06,3.1.06c.68,0,.84,0,1-.47a13.92,13.92,0,0,0,.24-2c0-.18,0-.33-.15-.33s-.16.08-.19.27c-.13.73-.34,1.11-.81,1.32a4.43,4.43,0,0,1-1.68.22c-1.82,0-2.11-.27-2.15-1.5,0-.52,0-2.17,0-2.77v-1.42c0-.1,0-.18.11-.18.43,0,2.2,0,2.54.06.66.07.91.34,1,.69a3.28,3.28,0,0,1,.07.65.14.14,0,0,0,.16.16c.17,0,.17-.2.17-.34s.05-.84.07-1.2c.07-.91.14-1.2.14-1.3s0-.15-.12-.15-.17.09-.29.24a1.27,1.27,0,0,1-.86.26c-.41,0-2.47,0-2.86,0-.11,0-.13-.07-.13-.2v-4.52c0-.13,0-.18.13-.18.36,0,2.23,0,2.54.07.89.11,1.07.32,1.2.64a1.9,1.9,0,0,1,.1.65c0,.16,0,.25.17.25s.16-.11.17-.2.08-1,.09-1.18c.06-.82.15-1,.15-1.16s0-.16-.11-.16a1.53,1.53,0,0,0-.29.07,6.88,6.88,0,0,1-.77.11h-4.47l-1.12,0-1.45,0c-.27,0-.4,0-.4.16s.11.16.31.16a3.37,3.37,0,0,1,.7.06c.59.12.73.41.76,1s0,1.07,0,3.79Zm-22-4.76h.05c.32.34,2.31,2.57,4.25,4.51s4.15,4.18,5.28,5.25c.19.2.41.4.6.4s.24-.16.24-.56l.19-11.28c0-1,.16-1.38.67-1.52a1.69,1.69,0,0,1,.53-.06c.22,0,.32,0,.32-.16s-.17-.16-.41-.16c-.87,0-1.55.05-1.75.05-.38,0-1.23-.05-2.16-.05-.27,0-.47,0-.47.16s.08.16.29.16a2.87,2.87,0,0,1,.95.11c.42.18.59.52.6,1.61l.18,8h-.09c-.3-.29-2.71-2.86-3.93-4.08-2.61-2.59-5.33-5.51-5.54-5.74s-.47-.55-.66-.55-.24.25-.24.61l-.16,10.58c0,1.56-.09,2.08-.55,2.22a3.25,3.25,0,0,1-.81.09c-.18,0-.28,0-.28.14s.16.18.39.18c.93,0,1.77-.05,1.93-.05.34,0,1.06.05,2.22.05.25,0,.41,0,.41-.18s-.1-.14-.3-.14a2.75,2.75,0,0,1-.93-.13c-.36-.12-.59-.59-.63-2Zm-14.76,4.76c0,1.73,0,3.14-.09,3.89-.05.52-.16.83-.51.9a3.48,3.48,0,0,1-.65.07c-.21,0-.28.05-.28.14s.12.18.35.18c.72,0,1.85-.05,2.26-.05s1.61.05,2.79.05c.19,0,.34-.05.34-.18s-.09-.14-.29-.14a8.83,8.83,0,0,1-.91-.07c-.54-.07-.66-.4-.72-.88-.07-.77-.07-2.18-.07-3.91v-3.15c0-2.72,0-3.22,0-3.79s.18-.93.66-1a2.7,2.7,0,0,1,.54-.06c.17,0,.28,0,.28-.18s-.14-.14-.37-.14c-.68,0-1.74.05-2.19.05s-1.64-.05-2.32-.05c-.29,0-.43,0-.43.14s.11.18.29.18a2.73,2.73,0,0,1,.64.07c.39.09.57.4.61,1s0,1.07,0,3.79Zm-14.72-1.45c0-.13,0-.16.12-.16.3,0,2.2,0,2.65.05a1.05,1.05,0,0,1,.91.64,2.09,2.09,0,0,1,.11.56c0,.12,0,.25.14.25s.18-.18.18-.34,0-1,.07-1.31c0-.55.14-1,.14-1.11s0-.16-.1-.16-.15.07-.24.18a.92.92,0,0,1-.77.32c-.25,0-.5,0-.8,0l-2.29,0c-.11,0-.12,0-.12-.16v-4.47c0-.2,0-.25.16-.25l2.75.05a1.29,1.29,0,0,1,1.18.54,1.7,1.7,0,0,1,.11.68c0,.19,0,.28.18.28s.16-.1.18-.25.07-1.27.09-1.45c0-.46.14-.68.14-.8a.15.15,0,0,0-.13-.16.9.9,0,0,0-.28.11,4,4,0,0,1-.74.07h-4.72L104,156l-1.45,0c-.27,0-.41,0-.41.18s.12.14.3.14a3.37,3.37,0,0,1,.7.06c.59.12.73.41.77,1s0,1.07,0,3.79v3.15c0,1.71,0,3.05-.09,3.8-.07.52-.16.92-.52,1a3.26,3.26,0,0,1-.64.07c-.2,0-.27.05-.27.14s.13.18.38.18c.68,0,1.8-.05,2.27-.05s1.59.05,2.72.05c.27,0,.39-.05.39-.18s-.07-.14-.3-.14-.65,0-.9-.07c-.53-.07-.64-.47-.7-1-.08-.75-.08-2.09-.08-3.8Z" transform="translate(-5.59 -98.49)"/><rect x="231.72" y="62.77" width="85.81" height="2.72"/><rect y="62.77" width="85.81" height="2.72"/></svg>