<svg xmlns="http://www.w3.org/2000/svg" viewBox="0 0 317.53 71.19"><defs><style>.cls-1{fill:#fff;}</style></defs><g id="Layer_2" data-name="Layer 2"><g id="Layer_1-2" data-name="Layer 1"><path class="cls-1" d="M292.92,30.16c0,5.69,0,10.57-.31,13.17-.19,1.79-.56,3.15-1.79,3.4a10.34,10.34,0,0,1-2.23.25c-.74,0-1,.18-1,.49s.44.62,1.24.62c2.47,0,6.37-.19,7.79-.19,1.73,0,5.62.19,9.7.19.68,0,1.18-.19,1.18-.62s-.31-.49-1-.49a26.61,26.61,0,0,1-3.15-.25c-1.86-.25-2.23-1.61-2.42-3.34-.3-2.66-.3-7.54-.3-13.23V4.82l7.78.19c5.5.12,7.17,1.85,7.3,3.46l.06.68c.06.92.18,1.23.68,1.23s.49-.37.56-1c0-1.6.18-5.87.18-7.17,0-.92-.06-1.29-.49-1.29a13.52,13.52,0,0,0-1.67.31,30.22,30.22,0,0,1-4.27.31H286.31c-2,0-4.39-.13-6.19-.31a14.48,14.48,0,0,1-2.65-.75c-.37,0-.56.38-.75,1.18-.12.49-1.29,6.12-1.29,7.11,0,.68.12,1,.55,1s.56-.25.68-.75a7.79,7.79,0,0,1,1-2.16c.93-1.36,2.41-1.67,6-1.79l9.21-.25Zm-43.76-1.3c-.25,0-.31-.18-.25-.43l5.69-15.2c.06-.25.18-.56.37-.56s.24.31.31.56l5.56,15.26c.06.19,0,.37-.31.37ZM261.7,32a.59.59,0,0,1,.62.43l4.95,13.1a1,1,0,0,1-.56,1.42c-.62.07-.86.19-.86.56s.74.43,1.85.49c4.95.13,9.46.13,11.68.13s2.85-.13,2.85-.62-.31-.49-.81-.49a13.93,13.93,0,0,1-2.59-.25c-1.3-.37-3.09-1.23-5.44-6.77-4-9.36-13.85-34.58-15.33-38-.62-1.42-1-2-1.55-2s-1,.68-1.73,2.47L239.27,41.29c-1.24,3.09-2.41,5.19-5.26,5.56a19.11,19.11,0,0,1-1.91.13c-.5,0-.74.12-.74.49s.37.62,1.17.62c3.21,0,6.61-.19,7.29-.19,1.92,0,4.58.19,6.56.19.68,0,1.05-.13,1.05-.62s-.19-.49-.93-.49h-.93c-1.91,0-2.47-.81-2.47-1.92a11.94,11.94,0,0,1,.93-3.77l3.33-8.84c.13-.37.25-.49.56-.49ZM216.27,49c4,0,8.66-.43,11.13-1.42A2.18,2.18,0,0,0,229,45.74a58.45,58.45,0,0,0,1.36-8.22c0-.5-.13-.93-.56-.93s-.62.25-.8,1.24a10.41,10.41,0,0,1-2.1,4.08c-2.48,2.84-5.81,3.46-11.32,3.46-8.28,0-19.47-7.29-19.47-22,0-6,1.18-11.86,5.69-16,2.72-2.48,6.24-3.84,11.62-3.84,5.69,0,10.51,1.67,12.55,3.84A8.82,8.82,0,0,1,228.39,13c0,.87.12,1.36.62,1.36s.68-.49.74-1.42c.12-1.24.06-4.64.18-6.68s.31-2.9.31-3.4-.24-.68-.92-.74c-1.86-.18-3.84-.74-6.18-1a61.4,61.4,0,0,0-9-.62C205,.49,199.09,3,194.64,7.05A23.26,23.26,0,0,0,187.41,24c0,6,1.61,12.92,7.66,18.24C200.7,47.1,207.81,49,216.27,49Zm-55.69-11.8c0,1,0,3.58-.18,6.18-.13,1.79-.68,3.15-1.92,3.4a10.19,10.19,0,0,1-2.16.25c-.68,0-1,.18-1,.49,0,.49.49.62,1.36.62,2.29,0,6.18-.19,7.72-.19s5.57.19,9.46.19c.81,0,1.3-.19,1.3-.62s-.31-.49-1-.49a27,27,0,0,1-3.09-.25c-1.85-.25-2.41-1.61-2.53-3.4-.19-2.6-.19-5.19-.19-6.18V32.08a14.73,14.73,0,0,1,.93-6.18c1.11-2.66,9.76-17.19,11.8-19.66,1.36-1.67,2-2.41,3.34-3a6.75,6.75,0,0,1,2.72-.74c.68,0,1.18-.18,1.18-.62s-.44-.49-1.12-.49c-1.17,0-5.25.19-6.61.19-1.79,0-3.77-.19-5.81-.19-.74,0-1.05.12-1.05.56s.55.49,1.11.61a1.48,1.48,0,0,1,1.3,1.55,8,8,0,0,1-.87,3.21c-.86,1.92-8.65,15.52-9.27,17-1-1.73-9.64-16.63-10.51-18.48a5.8,5.8,0,0,1-.74-2.1,1.11,1.11,0,0,1,.87-1.11c.92-.25,1.36-.31,1.36-.68s-.31-.56-.93-.56c-2.78,0-5.32.19-6.61.19-2,0-6.68-.19-7.79-.19-.74,0-1.18.19-1.18.56s.44.55.93.55a6.25,6.25,0,0,1,2.6.81,15,15,0,0,1,4.26,4.51c2.17,3.21,10.45,16.81,10.88,17.8a13.14,13.14,0,0,1,1.42,6.49Zm-47.41-7c0,5.69,0,10.57-.31,13.17-.24,1.79-.55,3.15-1.79,3.4a10.24,10.24,0,0,1-2.22.25c-.74,0-1,.18-1,.49s.43.62,1.23.62c2.48,0,6.37-.19,7.79-.19,1.61,0,5.5.19,9.58.19.68,0,1.18-.19,1.18-.62s-.31-.49-1-.49a26.61,26.61,0,0,1-3.15-.25c-1.86-.25-2.23-1.61-2.41-3.34-.31-2.66-.31-7.54-.31-13.23V5.44c0-.68.18-1.05.49-1.18A9,9,0,0,1,123.68,4a9.17,9.17,0,0,1,6.18,2.41c3.46,3.09,3.65,7.23,3.65,9.27,0,6.3-4.82,10.2-8.28,10.2-1.3,0-1.73.18-1.73.68s.43.49.74.55a8.1,8.1,0,0,0,1.3.07c8.77,0,15.2-6.18,15.2-15a10.75,10.75,0,0,0-3.09-7.36c-1-.92-3.77-3.52-11.5-3.52-2.84,0-6.42.19-9,.19-1.73,0-5.62-.19-8.9-.19-.93,0-1.36.12-1.36.56s.37.55,1,.55a12.09,12.09,0,0,1,2.41.19c2,.43,2.54,1.42,2.66,3.52s.12,3.71.12,13.1ZM77.26,45.86c-11.86,0-19-10.2-19-23,0-15.39,8.09-19.35,15.2-19.35,10.14,0,18.11,8.59,18.11,22.44C91.6,43.76,81.59,45.86,77.26,45.86ZM74.67,49c15.7,0,25.59-11.18,25.59-25.34S90.68.49,75.28.49C56.74.49,49.76,14.15,49.76,24.72,49.76,35.66,56.93,49,74.67,49Zm-45.5,0c4,0,8.66-.43,11.13-1.42a2.18,2.18,0,0,0,1.61-1.79,60,60,0,0,0,1.36-8.22c0-.5-.13-.93-.56-.93s-.62.25-.8,1.24a10.41,10.41,0,0,1-2.1,4.08c-2.48,2.84-5.81,3.46-11.32,3.46C20.21,45.37,9,38.08,9,23.36c0-6,1.18-11.86,5.69-16C17.43,4.88,21,3.52,26.33,3.52c5.69,0,10.51,1.67,12.55,3.84A8.82,8.82,0,0,1,41.29,13c0,.87.12,1.36.62,1.36s.68-.49.74-1.42c.12-1.24.06-4.64.18-6.68s.31-2.9.31-3.4-.24-.68-.92-.74c-1.86-.18-3.84-.74-6.19-1a61.15,61.15,0,0,0-9-.62C17.86.49,12,3,7.54,7.05A23.26,23.26,0,0,0,.31,24C.31,30,1.92,36.9,8,42.22,13.6,47.1,20.71,49,29.17,49Z"/><path class="cls-1" d="M214,65.79c0,1.64,0,3.06-.09,3.81-.05.52-.16.91-.52,1a2.64,2.64,0,0,1-.64.07c-.21,0-.29.06-.29.15s.13.17.36.17c.72,0,1.84,0,2.26,0s1.62,0,2.8,0c.2,0,.34,0,.34-.17s-.09-.15-.28-.15a6.59,6.59,0,0,1-.91-.07c-.54-.07-.65-.46-.7-1-.09-.77-.09-2.19-.09-3.83V58.46l2.25,0c1.59,0,2.08.54,2.11,1l0,.2c0,.27,0,.36.2.36s.14-.11.16-.29c0-.47.05-1.7.05-2.08s0-.37-.14-.37a3.27,3.27,0,0,0-.49.09,9.32,9.32,0,0,1-1.23.09h-7.08c-.59,0-1.27,0-1.79-.09a4.2,4.2,0,0,1-.77-.22c-.11,0-.16.11-.21.34s-.38,1.77-.38,2.06,0,.29.16.29.16-.08.2-.22a1.86,1.86,0,0,1,.3-.62c.27-.4.7-.49,1.74-.52l2.66-.07Zm-19-7.17c0-.15,0-.22.16-.25a3.53,3.53,0,0,1,1-.08c1.06,0,2.74.74,2.74,3.28a3.14,3.14,0,0,1-1.06,2.68,1.79,1.79,0,0,1-1.27.3,5,5,0,0,1-1.36-.17c-.12-.06-.16-.13-.16-.33Zm-2.11,7.17c0,1.64,0,3.06-.09,3.81-.07.52-.16.91-.52,1a2.64,2.64,0,0,1-.64.07c-.21,0-.29.06-.29.15s.13.17.36.17c.72,0,1.84,0,2.18,0s1.6,0,2.63,0c.23,0,.36,0,.36-.17s-.07-.15-.21-.15a7.23,7.23,0,0,1-.88-.07c-.54-.07-.64-.46-.7-1-.09-.75-.09-2.17-.09-3.83v-.25c0-.11.06-.14.15-.14l1.55,0a.36.36,0,0,1,.32.13c.24.27,1.06,1.48,1.77,2.47a8.73,8.73,0,0,0,2.45,2.62,3.58,3.58,0,0,0,1.92.34h1.7c.21,0,.34,0,.34-.17s-.07-.15-.22-.15a3.24,3.24,0,0,1-2.5-1.27c-1.06-1.11-2.29-2.7-3.88-4.7,1.8-1.47,2.36-2.68,2.36-4a3.1,3.1,0,0,0-1.22-2.45,5.71,5.71,0,0,0-3.29-.77c-.55,0-1.91.06-2.52.06-.38,0-1.5-.06-2.45-.06-.27,0-.39,0-.39.17s.1.16.3.16a3.46,3.46,0,0,1,.7,0c.59.12.73.41.77,1s0,1.07,0,3.79Zm-17.3-.38c-.07,0-.09,0-.07-.12l1.64-4.4c0-.07.06-.16.11-.16s.07.09.09.16L179,65.31s0,.1-.09.1Zm3.63.9a.17.17,0,0,1,.18.12l1.43,3.79a.29.29,0,0,1-.16.41c-.18,0-.25.06-.25.17s.21.12.53.14c1.43,0,2.74,0,3.38,0s.83,0,.83-.17-.09-.15-.24-.15a4.27,4.27,0,0,1-.75-.07c-.37-.11-.89-.35-1.57-2-1.15-2.71-4-10-4.44-11-.18-.41-.28-.57-.44-.57s-.29.2-.5.72L172.77,69c-.36.89-.7,1.5-1.52,1.61l-.56,0c-.14,0-.21,0-.21.15s.1.17.34.17c.93,0,1.91,0,2.11,0,.55,0,1.32,0,1.89,0,.2,0,.31,0,.31-.17s-.06-.15-.27-.15h-.27c-.55,0-.71-.23-.71-.55a3.3,3.3,0,0,1,.26-1.09l1-2.56c0-.11.07-.14.16-.14ZM152,65.79c0,1.64,0,3.06-.09,3.81-.07.52-.16.91-.52,1a2.7,2.7,0,0,1-.64.07c-.22,0-.29.06-.29.15s.13.17.36.17.82,0,1.23,0,.82,0,1,0c.54,0,1.09,0,1.86,0s1.75.06,3.1.06c.67,0,.84,0,1-.47a13.76,13.76,0,0,0,.23-2c0-.18,0-.32-.14-.32s-.16.07-.2.26c-.12.74-.34,1.11-.8,1.33a4.65,4.65,0,0,1-1.68.21c-1.83,0-2.11-.27-2.15-1.5,0-.52,0-2.16,0-2.77V64.38c0-.11,0-.18.11-.18.43,0,2.2,0,2.54,0,.66.07.91.34,1,.7a5.65,5.65,0,0,1,.07.64.14.14,0,0,0,.16.16c.16,0,.16-.19.16-.34s.06-.84.08-1.2c.07-.91.14-1.19.14-1.3s-.06-.14-.13-.14-.16.09-.28.23-.43.23-.86.27-2.47,0-2.86,0c-.11,0-.13-.07-.13-.19V58.58c0-.12,0-.18.13-.18.35,0,2.23,0,2.54.07.89.11,1.07.33,1.19.65a1.9,1.9,0,0,1,.11.64c0,.16,0,.25.16.25s.16-.11.18-.2.07-1,.09-1.18a11.07,11.07,0,0,1,.14-1.16c0-.09,0-.16-.1-.16a1.53,1.53,0,0,0-.29.07,6.88,6.88,0,0,1-.77.11c-.34,0-3.9,0-4.47,0l-1.13,0-1.44,0c-.27,0-.4,0-.4.17s.11.16.31.16a3.3,3.3,0,0,1,.69,0c.59.12.74.41.77,1s0,1.07,0,3.79ZM130,61h.06c.32.34,2.31,2.58,4.25,4.51s4.15,4.18,5.27,5.26c.2.19.42.39.61.39s.23-.16.23-.56l.2-11.28c0-1,.16-1.38.66-1.52a2.13,2.13,0,0,1,.54,0c.21,0,.32-.06.32-.16s-.18-.17-.41-.17c-.88,0-1.56.06-1.75.06-.38,0-1.24-.06-2.16-.06-.27,0-.47,0-.47.17s.07.16.29.16a3,3,0,0,1,.94.1c.43.18.59.52.61,1.61l.18,8h-.09c-.3-.28-2.71-2.86-3.93-4.07-2.61-2.6-5.33-5.51-5.54-5.75s-.47-.55-.67-.55-.23.25-.23.61l-.16,10.59c0,1.55-.09,2.07-.55,2.21a3.3,3.3,0,0,1-.81.09c-.18,0-.29,0-.29.15s.17.17.4.17c.93,0,1.77,0,1.93,0,.34,0,1.06,0,2.22,0,.25,0,.41,0,.41-.17s-.11-.15-.3-.15a3,3,0,0,1-.93-.12c-.36-.13-.59-.59-.63-2Zm-14.75,4.76c0,1.73,0,3.15-.09,3.9,0,.52-.16.82-.52.89a2.64,2.64,0,0,1-.64.07c-.21,0-.29.06-.29.15s.13.17.36.17c.72,0,1.84,0,2.25,0s1.61,0,2.79,0c.2,0,.34,0,.34-.17s-.09-.15-.28-.15a6.71,6.71,0,0,1-.91-.07c-.54-.07-.67-.39-.72-.88-.07-.76-.07-2.18-.07-3.91V62.64c0-2.72,0-3.22,0-3.79s.17-.93.66-1a2.55,2.55,0,0,1,.53,0c.18,0,.29,0,.29-.18s-.14-.15-.38-.15c-.68,0-1.73.06-2.18.06s-1.64-.06-2.32-.06c-.29,0-.43,0-.43.15s.11.18.28.18a2.32,2.32,0,0,1,.65.07c.39.09.57.39.61,1s0,1.07,0,3.79Zm-14.73-1.45c0-.13,0-.16.13-.16.3,0,2.2,0,2.64,0a1.06,1.06,0,0,1,.92.65,2,2,0,0,1,.1.55c0,.13,0,.25.15.25s.18-.18.18-.34,0-1,.07-1.3c0-.56.14-1,.14-1.11s0-.16-.11-.16-.14.07-.23.17a.93.93,0,0,1-.77.33H103l-2.29,0c-.11,0-.13,0-.13-.16V58.67c0-.2.06-.25.16-.25l2.76,0a1.3,1.3,0,0,1,1.18.54,1.72,1.72,0,0,1,.11.68c0,.2,0,.29.17.29s.17-.11.18-.25.08-1.27.09-1.45c.06-.47.15-.68.15-.81a.15.15,0,0,0-.13-.16,1.06,1.06,0,0,0-.29.11,3.79,3.79,0,0,1-.73.07c-.41,0-4,0-4.72,0l-1.13,0-1.45,0c-.26,0-.41,0-.41.18s.13.15.31.15a3.3,3.3,0,0,1,.69,0c.59.12.74.41.77,1s0,1.07,0,3.79v3.15c0,1.72,0,3.06-.09,3.81-.07.52-.16.91-.52,1a2.64,2.64,0,0,1-.64.07c-.2,0-.27.06-.27.15s.12.17.37.17c.68,0,1.81,0,2.28,0s1.59,0,2.71,0c.27,0,.4,0,.4-.17s-.07-.15-.31-.15a6.67,6.67,0,0,1-.89-.07c-.54-.07-.64-.46-.7-1-.09-.75-.09-2.09-.09-3.81Z"/><rect class="cls-1" x="231.72" y="62.77" width="85.81" height="2.72"/><rect class="cls-1" y="62.77" width="85.81" height="2.72"/></g></g></svg>