<svg xmlns="http://www.w3.org/2000/svg" viewBox="0 0 218.23 256.41"><defs><style>.cls-1{fill:#6667a8;}.cls-2{fill:#fff;}.cls-3{fill:none;stroke:#000;stroke-linecap:round;stroke-linejoin:round;}</style></defs><g id="Layer_2" data-name="Layer 2"><g id="Layer_1-2" data-name="Layer 1"><path class="cls-1" d="M155,8.58H27.46a12,12,0,0,0-12,12V244.41a12,12,0,0,0,12,12H206.23a12,12,0,0,0,12-12V76.77Z"/><rect class="cls-2" x="23.6" y="160.43" width="152.57" height="10.44" rx="2.62"/><rect class="cls-2" x="23.6" y="48.85" width="100.66" height="10.44" rx="2.62"/><rect class="cls-2" x="23.6" y="197.63" width="152.57" height="10.44" rx="2.62"/><rect class="cls-2" x="23.6" y="86.04" width="152.57" height="10.44" rx="2.62"/><rect class="cls-2" x="23.6" y="123.24" width="152.57" height="10.44" rx="2.62"/><path class="cls-3" d="M140,56.69a12,12,0,0,0,12,12h51.28L140,.5Z"/><path class="cls-3" d="M140,.5H12.5a12,12,0,0,0-12,12V236.33a12,12,0,0,0,12,12H191.27a12,12,0,0,0,12-12V68.69Z"/></g></g></svg>